<mxfile host="app.diagrams.net" modified="2022-08-20T09:19:39.485Z" agent="5.0 (Windows NT 6.1; Win64; x64) AppleWebKit/537.36 (KHTML, like Gecko) Chrome/103.0.0.0 Safari/537.36" etag="kCSZ6wIv3QQX2OIKfvec" version="15.2.1" type="github" pages="2">
  <diagram name="Page-1" id="74e2e168-ea6b-b213-b513-2b3c1d86103e">
    <mxGraphModel dx="2522" dy="1555" grid="1" gridSize="10" guides="1" tooltips="1" connect="1" arrows="1" fold="1" page="1" pageScale="1" pageWidth="1100" pageHeight="850" background="#ffffff" math="0" shadow="0">
      <root>
        <mxCell id="0" />
        <mxCell id="1" parent="0" />
        <mxCell id="626NCnL3sPuDbKjgWwMR-17" value="" style="rounded=1;whiteSpace=wrap;html=1;" parent="1" vertex="1">
          <mxGeometry x="567.5" y="45" width="622.5" height="155" as="geometry" />
        </mxCell>
        <mxCell id="626NCnL3sPuDbKjgWwMR-1" value="Actor" style="shape=umlActor;verticalLabelPosition=bottom;verticalAlign=top;html=1;outlineConnect=0;" parent="1" vertex="1">
          <mxGeometry x="120" y="70" width="30" height="60" as="geometry" />
        </mxCell>
        <mxCell id="626NCnL3sPuDbKjgWwMR-2" value="" style="whiteSpace=wrap;html=1;aspect=fixed;" parent="1" vertex="1">
          <mxGeometry x="215" y="50" width="130" height="130" as="geometry" />
        </mxCell>
        <mxCell id="626NCnL3sPuDbKjgWwMR-3" value="tomcat" style="text;html=1;strokeColor=none;fillColor=none;align=center;verticalAlign=middle;whiteSpace=wrap;rounded=0;" parent="1" vertex="1">
          <mxGeometry x="260" y="20" width="40" height="20" as="geometry" />
        </mxCell>
        <mxCell id="626NCnL3sPuDbKjgWwMR-4" value="线程2" style="ellipse;whiteSpace=wrap;html=1;" parent="1" vertex="1">
          <mxGeometry x="235" y="120" width="80" height="30" as="geometry" />
        </mxCell>
        <mxCell id="626NCnL3sPuDbKjgWwMR-5" value="线程1" style="ellipse;whiteSpace=wrap;html=1;" parent="1" vertex="1">
          <mxGeometry x="235" y="70" width="80" height="30" as="geometry" />
        </mxCell>
        <mxCell id="626NCnL3sPuDbKjgWwMR-7" value="" style="rounded=1;whiteSpace=wrap;html=1;" parent="1" vertex="1">
          <mxGeometry x="500" y="80" width="75" height="100" as="geometry" />
        </mxCell>
        <mxCell id="626NCnL3sPuDbKjgWwMR-8" value="数据库连接池" style="text;html=1;strokeColor=none;fillColor=none;align=center;verticalAlign=middle;whiteSpace=wrap;rounded=0;" parent="1" vertex="1">
          <mxGeometry x="518" y="50" width="40" height="20" as="geometry" />
        </mxCell>
        <mxCell id="626NCnL3sPuDbKjgWwMR-9" value="连接" style="ellipse;whiteSpace=wrap;html=1;" parent="1" vertex="1">
          <mxGeometry x="508" y="140" width="60" height="30" as="geometry" />
        </mxCell>
        <mxCell id="626NCnL3sPuDbKjgWwMR-10" value="连接" style="ellipse;whiteSpace=wrap;html=1;" parent="1" vertex="1">
          <mxGeometry x="507.5" y="90" width="60" height="30" as="geometry" />
        </mxCell>
        <mxCell id="626NCnL3sPuDbKjgWwMR-12" value="" style="rounded=1;whiteSpace=wrap;html=1;" parent="1" vertex="1">
          <mxGeometry x="340" y="80" width="75" height="100" as="geometry" />
        </mxCell>
        <mxCell id="626NCnL3sPuDbKjgWwMR-13" value="数据库连接池" style="text;html=1;strokeColor=none;fillColor=none;align=center;verticalAlign=middle;whiteSpace=wrap;rounded=0;" parent="1" vertex="1">
          <mxGeometry x="358" y="50" width="40" height="20" as="geometry" />
        </mxCell>
        <mxCell id="626NCnL3sPuDbKjgWwMR-14" value="连接" style="ellipse;whiteSpace=wrap;html=1;" parent="1" vertex="1">
          <mxGeometry x="348" y="140" width="60" height="30" as="geometry" />
        </mxCell>
        <mxCell id="626NCnL3sPuDbKjgWwMR-15" value="连接" style="ellipse;whiteSpace=wrap;html=1;" parent="1" vertex="1">
          <mxGeometry x="347.5" y="90" width="60" height="30" as="geometry" />
        </mxCell>
        <mxCell id="626NCnL3sPuDbKjgWwMR-40" style="edgeStyle=orthogonalEdgeStyle;rounded=0;orthogonalLoop=1;jettySize=auto;html=1;exitX=1;exitY=0.5;exitDx=0;exitDy=0;" parent="1" source="626NCnL3sPuDbKjgWwMR-18" target="626NCnL3sPuDbKjgWwMR-19" edge="1">
          <mxGeometry relative="1" as="geometry" />
        </mxCell>
        <mxCell id="626NCnL3sPuDbKjgWwMR-18" value="线程" style="ellipse;whiteSpace=wrap;html=1;" parent="1" vertex="1">
          <mxGeometry x="630" y="70" width="60" height="40" as="geometry" />
        </mxCell>
        <mxCell id="626NCnL3sPuDbKjgWwMR-19" value="SQL" style="rounded=0;whiteSpace=wrap;html=1;" parent="1" vertex="1">
          <mxGeometry x="750" y="70" width="70" height="40" as="geometry" />
        </mxCell>
        <mxCell id="626NCnL3sPuDbKjgWwMR-66" style="edgeStyle=orthogonalEdgeStyle;rounded=0;orthogonalLoop=1;jettySize=auto;html=1;exitX=1;exitY=0.5;exitDx=0;exitDy=0;entryX=0.5;entryY=0;entryDx=0;entryDy=0;" parent="1" source="626NCnL3sPuDbKjgWwMR-20" target="626NCnL3sPuDbKjgWwMR-21" edge="1">
          <mxGeometry relative="1" as="geometry" />
        </mxCell>
        <mxCell id="626NCnL3sPuDbKjgWwMR-20" value="查询解析器（表名，字段，查询条件）" style="rounded=0;whiteSpace=wrap;html=1;" parent="1" vertex="1">
          <mxGeometry x="920" y="70" width="140" height="40" as="geometry" />
        </mxCell>
        <mxCell id="626NCnL3sPuDbKjgWwMR-21" value="查询优化器（选择最优的查询路径，不一定时间最短的）" style="rounded=0;whiteSpace=wrap;html=1;" parent="1" vertex="1">
          <mxGeometry x="600" y="140" width="170" height="40" as="geometry" />
        </mxCell>
        <mxCell id="626NCnL3sPuDbKjgWwMR-22" value="执行器" style="rounded=0;whiteSpace=wrap;html=1;" parent="1" vertex="1">
          <mxGeometry x="920" y="140" width="70" height="40" as="geometry" />
        </mxCell>
        <mxCell id="626NCnL3sPuDbKjgWwMR-23" value="存储引擎" style="rounded=0;whiteSpace=wrap;html=1;" parent="1" vertex="1">
          <mxGeometry x="1090" y="140" width="70" height="40" as="geometry" />
        </mxCell>
        <mxCell id="626NCnL3sPuDbKjgWwMR-25" value="" style="endArrow=classic;html=1;entryX=0;entryY=0.5;entryDx=0;entryDy=0;" parent="1" source="626NCnL3sPuDbKjgWwMR-1" target="626NCnL3sPuDbKjgWwMR-5" edge="1">
          <mxGeometry width="50" height="50" relative="1" as="geometry">
            <mxPoint x="220" y="190" as="sourcePoint" />
            <mxPoint x="570" y="350" as="targetPoint" />
          </mxGeometry>
        </mxCell>
        <mxCell id="626NCnL3sPuDbKjgWwMR-26" value="" style="endArrow=classic;html=1;entryX=0;entryY=0.5;entryDx=0;entryDy=0;" parent="1" source="626NCnL3sPuDbKjgWwMR-1" target="626NCnL3sPuDbKjgWwMR-4" edge="1">
          <mxGeometry width="50" height="50" relative="1" as="geometry">
            <mxPoint x="160" y="107.75" as="sourcePoint" />
            <mxPoint x="245" y="95" as="targetPoint" />
          </mxGeometry>
        </mxCell>
        <mxCell id="626NCnL3sPuDbKjgWwMR-27" value="" style="endArrow=classic;html=1;entryX=0;entryY=0.5;entryDx=0;entryDy=0;exitX=1;exitY=0.5;exitDx=0;exitDy=0;" parent="1" source="626NCnL3sPuDbKjgWwMR-5" target="626NCnL3sPuDbKjgWwMR-15" edge="1">
          <mxGeometry width="50" height="50" relative="1" as="geometry">
            <mxPoint x="160" y="290" as="sourcePoint" />
            <mxPoint x="245" y="319.75" as="targetPoint" />
          </mxGeometry>
        </mxCell>
        <mxCell id="626NCnL3sPuDbKjgWwMR-28" value="" style="endArrow=classic;html=1;exitX=1;exitY=0.5;exitDx=0;exitDy=0;entryX=0;entryY=0.5;entryDx=0;entryDy=0;" parent="1" source="626NCnL3sPuDbKjgWwMR-4" target="626NCnL3sPuDbKjgWwMR-14" edge="1">
          <mxGeometry width="50" height="50" relative="1" as="geometry">
            <mxPoint x="280" y="460" as="sourcePoint" />
            <mxPoint x="330" y="410" as="targetPoint" />
          </mxGeometry>
        </mxCell>
        <mxCell id="626NCnL3sPuDbKjgWwMR-29" value="" style="endArrow=classic;html=1;exitX=1;exitY=0.5;exitDx=0;exitDy=0;entryX=0;entryY=0.5;entryDx=0;entryDy=0;" parent="1" source="626NCnL3sPuDbKjgWwMR-15" target="626NCnL3sPuDbKjgWwMR-10" edge="1">
          <mxGeometry width="50" height="50" relative="1" as="geometry">
            <mxPoint x="310" y="420" as="sourcePoint" />
            <mxPoint x="360" y="370" as="targetPoint" />
          </mxGeometry>
        </mxCell>
        <mxCell id="626NCnL3sPuDbKjgWwMR-30" value="" style="endArrow=classic;html=1;exitX=1;exitY=0.5;exitDx=0;exitDy=0;entryX=0;entryY=0.5;entryDx=0;entryDy=0;" parent="1" source="626NCnL3sPuDbKjgWwMR-14" target="626NCnL3sPuDbKjgWwMR-9" edge="1">
          <mxGeometry width="50" height="50" relative="1" as="geometry">
            <mxPoint x="310" y="430" as="sourcePoint" />
            <mxPoint x="360" y="380" as="targetPoint" />
          </mxGeometry>
        </mxCell>
        <mxCell id="626NCnL3sPuDbKjgWwMR-31" value="网络连接" style="text;html=1;strokeColor=none;fillColor=none;align=center;verticalAlign=middle;whiteSpace=wrap;rounded=0;" parent="1" vertex="1">
          <mxGeometry x="420" y="10" width="70" height="20" as="geometry" />
        </mxCell>
        <mxCell id="626NCnL3sPuDbKjgWwMR-33" value="执行sql" style="text;html=1;strokeColor=none;fillColor=none;align=center;verticalAlign=middle;whiteSpace=wrap;rounded=0;" parent="1" vertex="1">
          <mxGeometry x="425" y="125" width="65" height="10" as="geometry" />
        </mxCell>
        <mxCell id="626NCnL3sPuDbKjgWwMR-38" value="单线程监听&lt;br&gt;SQL多个连接" style="ellipse;shape=cloud;whiteSpace=wrap;html=1;" parent="1" vertex="1">
          <mxGeometry x="500" y="-70" width="150" height="70" as="geometry" />
        </mxCell>
        <mxCell id="626NCnL3sPuDbKjgWwMR-39" value="" style="endArrow=none;dashed=1;html=1;dashPattern=1 3;strokeWidth=2;exitX=0.55;exitY=0.95;exitDx=0;exitDy=0;exitPerimeter=0;entryX=0.5;entryY=0;entryDx=0;entryDy=0;" parent="1" source="626NCnL3sPuDbKjgWwMR-38" target="626NCnL3sPuDbKjgWwMR-18" edge="1">
          <mxGeometry width="50" height="50" relative="1" as="geometry">
            <mxPoint x="460" y="440" as="sourcePoint" />
            <mxPoint x="510" y="390" as="targetPoint" />
          </mxGeometry>
        </mxCell>
        <mxCell id="626NCnL3sPuDbKjgWwMR-41" value="数据库服务器" style="text;html=1;strokeColor=none;fillColor=none;align=center;verticalAlign=middle;whiteSpace=wrap;rounded=0;" parent="1" vertex="1">
          <mxGeometry x="830" y="10" width="100" height="20" as="geometry" />
        </mxCell>
        <mxCell id="626NCnL3sPuDbKjgWwMR-42" value="" style="endArrow=classic;html=1;" parent="1" edge="1">
          <mxGeometry relative="1" as="geometry">
            <mxPoint x="820" y="90" as="sourcePoint" />
            <mxPoint x="920" y="90" as="targetPoint" />
          </mxGeometry>
        </mxCell>
        <mxCell id="626NCnL3sPuDbKjgWwMR-43" value="获取sql语句" style="edgeLabel;resizable=0;html=1;align=center;verticalAlign=middle;" parent="626NCnL3sPuDbKjgWwMR-42" connectable="0" vertex="1">
          <mxGeometry relative="1" as="geometry" />
        </mxCell>
        <mxCell id="626NCnL3sPuDbKjgWwMR-62" value="" style="endArrow=classic;html=1;entryX=0.05;entryY=0.35;entryDx=0;entryDy=0;entryPerimeter=0;exitX=1;exitY=0.5;exitDx=0;exitDy=0;" parent="1" source="626NCnL3sPuDbKjgWwMR-10" target="626NCnL3sPuDbKjgWwMR-18" edge="1">
          <mxGeometry relative="1" as="geometry">
            <mxPoint x="350" y="390" as="sourcePoint" />
            <mxPoint x="500" y="340" as="targetPoint" />
          </mxGeometry>
        </mxCell>
        <mxCell id="626NCnL3sPuDbKjgWwMR-63" value="j监听请求" style="edgeLabel;resizable=0;html=1;align=center;verticalAlign=middle;" parent="626NCnL3sPuDbKjgWwMR-62" connectable="0" vertex="1">
          <mxGeometry relative="1" as="geometry" />
        </mxCell>
        <mxCell id="626NCnL3sPuDbKjgWwMR-64" value="" style="endArrow=classic;html=1;entryX=0;entryY=1;entryDx=0;entryDy=0;exitX=1;exitY=0.5;exitDx=0;exitDy=0;" parent="1" source="626NCnL3sPuDbKjgWwMR-9" target="626NCnL3sPuDbKjgWwMR-18" edge="1">
          <mxGeometry relative="1" as="geometry">
            <mxPoint x="360" y="400" as="sourcePoint" />
            <mxPoint x="700" y="370" as="targetPoint" />
          </mxGeometry>
        </mxCell>
        <mxCell id="626NCnL3sPuDbKjgWwMR-65" value="j监听请求" style="edgeLabel;resizable=0;html=1;align=center;verticalAlign=middle;" parent="626NCnL3sPuDbKjgWwMR-64" connectable="0" vertex="1">
          <mxGeometry relative="1" as="geometry" />
        </mxCell>
        <mxCell id="626NCnL3sPuDbKjgWwMR-67" value="" style="endArrow=classic;html=1;entryX=0;entryY=0.75;entryDx=0;entryDy=0;exitX=1;exitY=0.75;exitDx=0;exitDy=0;" parent="1" source="626NCnL3sPuDbKjgWwMR-21" target="626NCnL3sPuDbKjgWwMR-22" edge="1">
          <mxGeometry relative="1" as="geometry">
            <mxPoint x="600" y="370" as="sourcePoint" />
            <mxPoint x="772" y="370" as="targetPoint" />
          </mxGeometry>
        </mxCell>
        <mxCell id="626NCnL3sPuDbKjgWwMR-68" value="得到一条执行计划" style="edgeLabel;resizable=0;html=1;align=center;verticalAlign=middle;" parent="626NCnL3sPuDbKjgWwMR-67" connectable="0" vertex="1">
          <mxGeometry relative="1" as="geometry" />
        </mxCell>
        <mxCell id="626NCnL3sPuDbKjgWwMR-69" value="" style="endArrow=classic;html=1;" parent="1" edge="1">
          <mxGeometry relative="1" as="geometry">
            <mxPoint x="990" y="159.5" as="sourcePoint" />
            <mxPoint x="1090" y="159.5" as="targetPoint" />
          </mxGeometry>
        </mxCell>
        <mxCell id="626NCnL3sPuDbKjgWwMR-70" value="调用引擎接口" style="edgeLabel;resizable=0;html=1;align=center;verticalAlign=middle;" parent="626NCnL3sPuDbKjgWwMR-69" connectable="0" vertex="1">
          <mxGeometry relative="1" as="geometry" />
        </mxCell>
        <mxCell id="626NCnL3sPuDbKjgWwMR-71" value="" style="rounded=1;whiteSpace=wrap;html=1;" parent="1" vertex="1">
          <mxGeometry x="120" y="240" width="1070" height="790" as="geometry" />
        </mxCell>
        <mxCell id="626NCnL3sPuDbKjgWwMR-72" value="innodb存储引擎" style="text;html=1;strokeColor=none;fillColor=none;align=center;verticalAlign=middle;whiteSpace=wrap;rounded=0;" parent="1" vertex="1">
          <mxGeometry x="568" y="270" width="132" height="30" as="geometry" />
        </mxCell>
        <mxCell id="626NCnL3sPuDbKjgWwMR-73" value="" style="rounded=1;whiteSpace=wrap;html=1;" parent="1" vertex="1">
          <mxGeometry x="210" y="320" width="385" height="210" as="geometry" />
        </mxCell>
        <mxCell id="626NCnL3sPuDbKjgWwMR-74" value="缓冲池buffe-pool" style="text;html=1;strokeColor=none;fillColor=none;align=center;verticalAlign=middle;whiteSpace=wrap;rounded=0;" parent="1" vertex="1">
          <mxGeometry x="308" y="330" width="100" height="20" as="geometry" />
        </mxCell>
        <mxCell id="626NCnL3sPuDbKjgWwMR-75" value="磁盘文件" style="whiteSpace=wrap;html=1;aspect=fixed;" parent="1" vertex="1">
          <mxGeometry x="-60" y="362" width="120" height="120" as="geometry" />
        </mxCell>
        <mxCell id="626NCnL3sPuDbKjgWwMR-76" value="" style="endArrow=classic;html=1;exitX=1;exitY=0.25;exitDx=0;exitDy=0;entryX=0;entryY=0.5;entryDx=0;entryDy=0;" parent="1" source="626NCnL3sPuDbKjgWwMR-75" target="626NCnL3sPuDbKjgWwMR-78" edge="1">
          <mxGeometry relative="1" as="geometry">
            <mxPoint x="-40" y="210" as="sourcePoint" />
            <mxPoint x="240" y="210" as="targetPoint" />
          </mxGeometry>
        </mxCell>
        <mxCell id="626NCnL3sPuDbKjgWwMR-77" value="&amp;nbsp;1从磁盘中加载需要&lt;br&gt;更新的数据到缓冲池" style="edgeLabel;resizable=0;html=1;align=center;verticalAlign=middle;" parent="626NCnL3sPuDbKjgWwMR-76" connectable="0" vertex="1">
          <mxGeometry relative="1" as="geometry" />
        </mxCell>
        <mxCell id="626NCnL3sPuDbKjgWwMR-78" value="磁盘加载的记录&lt;br&gt;id=xx，name=xx" style="rounded=1;whiteSpace=wrap;html=1;" parent="1" vertex="1">
          <mxGeometry x="235" y="355" width="145" height="75" as="geometry" />
        </mxCell>
        <mxCell id="626NCnL3sPuDbKjgWwMR-79" value="2先加独占锁&lt;br&gt;保证并发数据安全" style="ellipse;whiteSpace=wrap;html=1;" parent="1" vertex="1">
          <mxGeometry x="440" y="342.5" width="135" height="55" as="geometry" />
        </mxCell>
        <mxCell id="626NCnL3sPuDbKjgWwMR-80" value="" style="endArrow=classic;html=1;exitX=0;exitY=0.5;exitDx=0;exitDy=0;entryX=1;entryY=0.5;entryDx=0;entryDy=0;" parent="1" source="626NCnL3sPuDbKjgWwMR-79" target="626NCnL3sPuDbKjgWwMR-78" edge="1">
          <mxGeometry width="50" height="50" relative="1" as="geometry">
            <mxPoint x="-10" y="630" as="sourcePoint" />
            <mxPoint x="40" y="580" as="targetPoint" />
            <Array as="points">
              <mxPoint x="440" y="393" />
            </Array>
          </mxGeometry>
        </mxCell>
        <mxCell id="626NCnL3sPuDbKjgWwMR-82" value="undo日志文件" style="rounded=0;whiteSpace=wrap;html=1;" parent="1" vertex="1">
          <mxGeometry x="150" y="600" width="120" height="60" as="geometry" />
        </mxCell>
        <mxCell id="626NCnL3sPuDbKjgWwMR-83" value="redo log buffer" style="rounded=0;whiteSpace=wrap;html=1;" parent="1" vertex="1">
          <mxGeometry x="448" y="590" width="236.5" height="80" as="geometry" />
        </mxCell>
        <mxCell id="626NCnL3sPuDbKjgWwMR-84" value="磁盘binlog日志" style="rounded=0;whiteSpace=wrap;html=1;" parent="1" vertex="1">
          <mxGeometry x="890" y="600" width="120" height="60" as="geometry" />
        </mxCell>
        <mxCell id="626NCnL3sPuDbKjgWwMR-87" value="" style="endArrow=classic;html=1;entryX=0.5;entryY=0;entryDx=0;entryDy=0;exitX=0.5;exitY=1;exitDx=0;exitDy=0;" parent="1" source="626NCnL3sPuDbKjgWwMR-78" target="626NCnL3sPuDbKjgWwMR-82" edge="1">
          <mxGeometry relative="1" as="geometry">
            <mxPoint x="159.14" y="980" as="sourcePoint" />
            <mxPoint x="690" y="980" as="targetPoint" />
            <Array as="points">
              <mxPoint x="308" y="500" />
              <mxPoint x="210" y="560" />
            </Array>
          </mxGeometry>
        </mxCell>
        <mxCell id="626NCnL3sPuDbKjgWwMR-88" value="3 将日志写入undo日志文件中&lt;br&gt;方便回滚操作" style="edgeLabel;resizable=0;html=1;align=center;verticalAlign=middle;" parent="626NCnL3sPuDbKjgWwMR-87" connectable="0" vertex="1">
          <mxGeometry relative="1" as="geometry">
            <mxPoint x="21.03" y="-17.59" as="offset" />
          </mxGeometry>
        </mxCell>
        <mxCell id="626NCnL3sPuDbKjgWwMR-89" value="内存更新后的数据&lt;br&gt;id=xx，name=aa" style="rounded=0;whiteSpace=wrap;html=1;" parent="1" vertex="1">
          <mxGeometry x="418.5" y="480" width="145" height="40" as="geometry" />
        </mxCell>
        <mxCell id="626NCnL3sPuDbKjgWwMR-90" value="" style="endArrow=classic;html=1;exitX=0.959;exitY=0.987;exitDx=0;exitDy=0;exitPerimeter=0;entryX=0.5;entryY=0;entryDx=0;entryDy=0;" parent="1" source="626NCnL3sPuDbKjgWwMR-78" target="626NCnL3sPuDbKjgWwMR-89" edge="1">
          <mxGeometry relative="1" as="geometry">
            <mxPoint x="120" y="980" as="sourcePoint" />
            <mxPoint x="520" y="990" as="targetPoint" />
            <Array as="points">
              <mxPoint x="490" y="429" />
            </Array>
          </mxGeometry>
        </mxCell>
        <mxCell id="626NCnL3sPuDbKjgWwMR-91" value="4 更新内存数据&lt;br&gt;id=xx，name=aa" style="edgeLabel;resizable=0;html=1;align=center;verticalAlign=middle;" parent="626NCnL3sPuDbKjgWwMR-90" connectable="0" vertex="1">
          <mxGeometry relative="1" as="geometry" />
        </mxCell>
        <mxCell id="626NCnL3sPuDbKjgWwMR-92" value="" style="endArrow=classic;html=1;entryX=0;entryY=0.75;entryDx=0;entryDy=0;exitX=0.252;exitY=0.42;exitDx=0;exitDy=0;exitPerimeter=0;" parent="1" edge="1">
          <mxGeometry relative="1" as="geometry">
            <mxPoint x="389.6399999999999" y="527.8000000000002" as="sourcePoint" />
            <mxPoint x="448" y="648" as="targetPoint" />
            <Array as="points">
              <mxPoint x="390" y="648" />
            </Array>
          </mxGeometry>
        </mxCell>
        <mxCell id="626NCnL3sPuDbKjgWwMR-93" value="5 将本次修改&lt;br&gt;写入redo log中" style="edgeLabel;resizable=0;html=1;align=center;verticalAlign=middle;" parent="626NCnL3sPuDbKjgWwMR-92" connectable="0" vertex="1">
          <mxGeometry relative="1" as="geometry" />
        </mxCell>
        <mxCell id="626NCnL3sPuDbKjgWwMR-94" value="" style="endArrow=classic;html=1;exitX=1;exitY=0.5;exitDx=0;exitDy=0;entryX=0;entryY=0.5;entryDx=0;entryDy=0;" parent="1" source="626NCnL3sPuDbKjgWwMR-83" target="626NCnL3sPuDbKjgWwMR-84" edge="1">
          <mxGeometry relative="1" as="geometry">
            <mxPoint x="700" y="530" as="sourcePoint" />
            <mxPoint x="940" y="530" as="targetPoint" />
          </mxGeometry>
        </mxCell>
        <mxCell id="626NCnL3sPuDbKjgWwMR-95" value="6 刷入磁盘&lt;br&gt;bin log日志中" style="edgeLabel;resizable=0;html=1;align=center;verticalAlign=middle;" parent="626NCnL3sPuDbKjgWwMR-94" connectable="0" vertex="1">
          <mxGeometry relative="1" as="geometry" />
        </mxCell>
        <mxCell id="626NCnL3sPuDbKjgWwMR-97" value="磁盘&lt;span style=&quot;color: rgba(0 , 0 , 0 , 0) ; font-family: monospace ; font-size: 0px&quot;&gt;%3CmxGraphModel%3E%3Croot%3E%3CmxCell%20id%3D%220%22%2F%3E%3CmxCell%20id%3D%221%22%20parent%3D%220%22%2F%3E%3CmxCell%20id%3D%222%22%20value%3D%22%22%20style%3D%22endArrow%3Dclassic%3Bhtml%3D1%3BexitX%3D0.121%3BexitY%3D0.71%3BexitDx%3D0%3BexitDy%3D0%3BexitPerimeter%3D0%3BentryX%3D0.617%3BentryY%3D0.71%3BentryDx%3D0%3BentryDy%3D0%3BentryPerimeter%3D0%3B%22%20edge%3D%221%22%20parent%3D%221%22%3E%3CmxGeometry%20relative%3D%221%22%20as%3D%22geometry%22%3E%3CmxPoint%20x%3D%22249.4699999999998%22%20y%3D%22729.9000000000001%22%20as%3D%22sourcePoint%22%2F%3E%3CmxPoint%20x%3D%22780.19%22%20y%3D%22729.9000000000001%22%20as%3D%22targetPoint%22%2F%3E%3C%2FmxGeometry%3E%3C%2FmxCell%3E%3CmxCell%20id%3D%223%22%20value%3D%22Label%22%20style%3D%22edgeLabel%3Bresizable%3D0%3Bhtml%3D1%3Balign%3Dcenter%3BverticalAlign%3Dmiddle%3B%22%20connectable%3D%220%22%20vertex%3D%221%22%20parent%3D%222%22%3E%3CmxGeometry%20relative%3D%221%22%20as%3D%22geometry%22%2F%3E%3C%2FmxCell%3E%3C%2Froot%3E%3C%2FmxGraphModel%3E&lt;/span&gt;" style="rounded=0;whiteSpace=wrap;html=1;" parent="1" vertex="1">
          <mxGeometry x="830" y="849" width="110" height="30" as="geometry" />
        </mxCell>
        <mxCell id="626NCnL3sPuDbKjgWwMR-98" value="os cache" style="rounded=0;whiteSpace=wrap;html=1;" parent="1" vertex="1">
          <mxGeometry x="830" y="911" width="110" height="30" as="geometry" />
        </mxCell>
        <mxCell id="626NCnL3sPuDbKjgWwMR-99" value="" style="endArrow=classic;html=1;entryX=0.5;entryY=1;entryDx=0;entryDy=0;exitX=0.5;exitY=0;exitDx=0;exitDy=0;" parent="1" source="626NCnL3sPuDbKjgWwMR-98" target="626NCnL3sPuDbKjgWwMR-97" edge="1">
          <mxGeometry relative="1" as="geometry">
            <mxPoint x="770" y="1110" as="sourcePoint" />
            <mxPoint x="870" y="1110" as="targetPoint" />
            <Array as="points" />
          </mxGeometry>
        </mxCell>
        <mxCell id="626NCnL3sPuDbKjgWwMR-100" value="刷盘/s" style="edgeLabel;resizable=0;html=1;align=center;verticalAlign=middle;" parent="626NCnL3sPuDbKjgWwMR-99" connectable="0" vertex="1">
          <mxGeometry relative="1" as="geometry">
            <mxPoint x="1" as="offset" />
          </mxGeometry>
        </mxCell>
        <mxCell id="626NCnL3sPuDbKjgWwMR-101" value="1.bin log文件名和位置&lt;br&gt;2.commit 标记" style="shape=note;whiteSpace=wrap;html=1;backgroundOutline=1;darkOpacity=0.05;" parent="1" vertex="1">
          <mxGeometry x="990" y="730" width="185" height="60" as="geometry" />
        </mxCell>
        <mxCell id="626NCnL3sPuDbKjgWwMR-102" value="" style="endArrow=classic;html=1;entryX=0.5;entryY=0;entryDx=0;entryDy=0;entryPerimeter=0;exitX=1;exitY=0.5;exitDx=0;exitDy=0;" parent="1" source="626NCnL3sPuDbKjgWwMR-84" target="626NCnL3sPuDbKjgWwMR-101" edge="1">
          <mxGeometry relative="1" as="geometry">
            <mxPoint x="300" y="1080" as="sourcePoint" />
            <mxPoint x="770" y="1060" as="targetPoint" />
            <Array as="points">
              <mxPoint x="1083" y="630" />
            </Array>
          </mxGeometry>
        </mxCell>
        <mxCell id="626NCnL3sPuDbKjgWwMR-103" value="7 将bin log日志信息&lt;br&gt;刷入到磁盘redo日志中" style="edgeLabel;resizable=0;html=1;align=center;verticalAlign=middle;" parent="626NCnL3sPuDbKjgWwMR-102" connectable="0" vertex="1">
          <mxGeometry relative="1" as="geometry">
            <mxPoint x="9.36" y="5.4" as="offset" />
          </mxGeometry>
        </mxCell>
        <mxCell id="626NCnL3sPuDbKjgWwMR-104" value="commit标记&lt;br&gt;redo log 含该标记&lt;br&gt;则事务才算提交成功&amp;nbsp;" style="ellipse;shape=cloud;whiteSpace=wrap;html=1;" parent="1" vertex="1">
          <mxGeometry x="804" y="670" width="162" height="90" as="geometry" />
        </mxCell>
        <mxCell id="626NCnL3sPuDbKjgWwMR-105" value="" style="endArrow=none;dashed=1;html=1;dashPattern=1 3;strokeWidth=2;entryX=0;entryY=0.5;entryDx=0;entryDy=0;entryPerimeter=0;" parent="1" source="626NCnL3sPuDbKjgWwMR-104" target="626NCnL3sPuDbKjgWwMR-101" edge="1">
          <mxGeometry width="50" height="50" relative="1" as="geometry">
            <mxPoint x="370" y="1190" as="sourcePoint" />
            <mxPoint x="420" y="1140" as="targetPoint" />
          </mxGeometry>
        </mxCell>
        <mxCell id="626NCnL3sPuDbKjgWwMR-107" value="" style="endArrow=classic;html=1;entryX=1;entryY=0.5;entryDx=0;entryDy=0;exitX=0.5;exitY=1;exitDx=0;exitDy=0;exitPerimeter=0;" parent="1" source="626NCnL3sPuDbKjgWwMR-101" target="626NCnL3sPuDbKjgWwMR-97" edge="1">
          <mxGeometry width="50" height="50" relative="1" as="geometry">
            <mxPoint x="460" y="1070" as="sourcePoint" />
            <mxPoint x="510" y="1020" as="targetPoint" />
            <Array as="points">
              <mxPoint x="1083" y="864" />
            </Array>
          </mxGeometry>
        </mxCell>
        <mxCell id="626NCnL3sPuDbKjgWwMR-109" value="" style="shape=ext;rounded=1;html=1;whiteSpace=wrap;dashed=1;dashPattern=1 4;" parent="1" vertex="1">
          <mxGeometry x="392.5" y="710" width="427.5" height="270" as="geometry" />
        </mxCell>
        <mxCell id="626NCnL3sPuDbKjgWwMR-110" value="innodb-flush-log-at-trx-commit" style="rounded=0;whiteSpace=wrap;html=1;" parent="1" vertex="1">
          <mxGeometry x="404.5" y="730" width="200" height="40" as="geometry" />
        </mxCell>
        <mxCell id="626NCnL3sPuDbKjgWwMR-112" value="值=0" style="rounded=1;whiteSpace=wrap;html=1;" parent="1" vertex="1">
          <mxGeometry x="474.5" y="790" width="100" height="30" as="geometry" />
        </mxCell>
        <mxCell id="626NCnL3sPuDbKjgWwMR-113" value="值=1" style="rounded=1;whiteSpace=wrap;html=1;" parent="1" vertex="1">
          <mxGeometry x="474.5" y="850" width="100" height="30" as="geometry" />
        </mxCell>
        <mxCell id="626NCnL3sPuDbKjgWwMR-114" value="值=2" style="rounded=1;whiteSpace=wrap;html=1;" parent="1" vertex="1">
          <mxGeometry x="474.5" y="910" width="100" height="30" as="geometry" />
        </mxCell>
        <mxCell id="626NCnL3sPuDbKjgWwMR-115" value="不会写入磁盘&lt;br&gt;宕机会导致提交的事务数据丢失" style="rounded=1;whiteSpace=wrap;html=1;" parent="1" vertex="1">
          <mxGeometry x="607.5" y="790" width="177" height="30" as="geometry" />
        </mxCell>
        <mxCell id="626NCnL3sPuDbKjgWwMR-116" value="数据实时写入磁盘，零丢失&lt;br&gt;效率低" style="rounded=1;whiteSpace=wrap;html=1;" parent="1" vertex="1">
          <mxGeometry x="604.5" y="850" width="180" height="30" as="geometry" />
        </mxCell>
        <mxCell id="626NCnL3sPuDbKjgWwMR-117" value="写入os cache，每秒刷新一次&lt;br&gt;到磁盘，宕机会丢失1秒数据" style="rounded=1;whiteSpace=wrap;html=1;" parent="1" vertex="1">
          <mxGeometry x="605.5" y="910" width="177" height="30" as="geometry" />
        </mxCell>
        <mxCell id="626NCnL3sPuDbKjgWwMR-118" value="" style="endArrow=classic;html=1;entryX=0.5;entryY=0;entryDx=0;entryDy=0;exitX=0.25;exitY=1;exitDx=0;exitDy=0;" parent="1" source="626NCnL3sPuDbKjgWwMR-83" target="626NCnL3sPuDbKjgWwMR-110" edge="1">
          <mxGeometry relative="1" as="geometry">
            <mxPoint x="-30" y="1030" as="sourcePoint" />
            <mxPoint x="70" y="1030" as="targetPoint" />
          </mxGeometry>
        </mxCell>
        <mxCell id="626NCnL3sPuDbKjgWwMR-119" value="redo" style="edgeLabel;resizable=0;html=1;align=center;verticalAlign=middle;" parent="626NCnL3sPuDbKjgWwMR-118" connectable="0" vertex="1">
          <mxGeometry relative="1" as="geometry" />
        </mxCell>
        <mxCell id="626NCnL3sPuDbKjgWwMR-120" value="" style="endArrow=classic;html=1;entryX=0;entryY=0.5;entryDx=0;entryDy=0;exitX=0.138;exitY=0.975;exitDx=0;exitDy=0;exitPerimeter=0;" parent="1" source="626NCnL3sPuDbKjgWwMR-110" target="626NCnL3sPuDbKjgWwMR-112" edge="1">
          <mxGeometry width="50" height="50" relative="1" as="geometry">
            <mxPoint x="20" y="830" as="sourcePoint" />
            <mxPoint x="70" y="780" as="targetPoint" />
            <Array as="points">
              <mxPoint x="432" y="805" />
            </Array>
          </mxGeometry>
        </mxCell>
        <mxCell id="626NCnL3sPuDbKjgWwMR-121" value="" style="endArrow=classic;html=1;entryX=0;entryY=0.5;entryDx=0;entryDy=0;exitX=0.133;exitY=1.025;exitDx=0;exitDy=0;exitPerimeter=0;" parent="1" source="626NCnL3sPuDbKjgWwMR-110" target="626NCnL3sPuDbKjgWwMR-113" edge="1">
          <mxGeometry width="50" height="50" relative="1" as="geometry">
            <mxPoint x="40" y="1060" as="sourcePoint" />
            <mxPoint x="90" y="1010" as="targetPoint" />
            <Array as="points">
              <mxPoint x="431" y="865" />
            </Array>
          </mxGeometry>
        </mxCell>
        <mxCell id="626NCnL3sPuDbKjgWwMR-122" value="" style="endArrow=classic;html=1;entryX=0;entryY=0.5;entryDx=0;entryDy=0;exitX=0.128;exitY=1.025;exitDx=0;exitDy=0;exitPerimeter=0;" parent="1" source="626NCnL3sPuDbKjgWwMR-110" target="626NCnL3sPuDbKjgWwMR-114" edge="1">
          <mxGeometry width="50" height="50" relative="1" as="geometry">
            <mxPoint x="60" y="1130" as="sourcePoint" />
            <mxPoint x="110" y="1080" as="targetPoint" />
            <Array as="points">
              <mxPoint x="430" y="925" />
            </Array>
          </mxGeometry>
        </mxCell>
        <mxCell id="626NCnL3sPuDbKjgWwMR-123" value="" style="endArrow=classic;html=1;entryX=0;entryY=0.5;entryDx=0;entryDy=0;exitX=1;exitY=0.5;exitDx=0;exitDy=0;" parent="1" source="626NCnL3sPuDbKjgWwMR-112" target="626NCnL3sPuDbKjgWwMR-115" edge="1">
          <mxGeometry width="50" height="50" relative="1" as="geometry">
            <mxPoint x="130" y="1140" as="sourcePoint" />
            <mxPoint x="180" y="1090" as="targetPoint" />
          </mxGeometry>
        </mxCell>
        <mxCell id="626NCnL3sPuDbKjgWwMR-124" value="" style="endArrow=classic;html=1;entryX=0;entryY=0.5;entryDx=0;entryDy=0;exitX=1;exitY=0.5;exitDx=0;exitDy=0;" parent="1" source="626NCnL3sPuDbKjgWwMR-113" target="626NCnL3sPuDbKjgWwMR-116" edge="1">
          <mxGeometry width="50" height="50" relative="1" as="geometry">
            <mxPoint x="584.5" y="815" as="sourcePoint" />
            <mxPoint x="617.5" y="815" as="targetPoint" />
          </mxGeometry>
        </mxCell>
        <mxCell id="626NCnL3sPuDbKjgWwMR-125" value="" style="endArrow=classic;html=1;entryX=0;entryY=0.5;entryDx=0;entryDy=0;exitX=1;exitY=0.5;exitDx=0;exitDy=0;" parent="1" source="626NCnL3sPuDbKjgWwMR-114" target="626NCnL3sPuDbKjgWwMR-117" edge="1">
          <mxGeometry width="50" height="50" relative="1" as="geometry">
            <mxPoint x="594.5" y="825" as="sourcePoint" />
            <mxPoint x="627.5" y="825" as="targetPoint" />
          </mxGeometry>
        </mxCell>
        <mxCell id="626NCnL3sPuDbKjgWwMR-128" value="" style="endArrow=classic;html=1;entryX=0.5;entryY=0;entryDx=0;entryDy=0;exitX=1;exitY=0.5;exitDx=0;exitDy=0;" parent="1" source="626NCnL3sPuDbKjgWwMR-115" target="626NCnL3sPuDbKjgWwMR-97" edge="1">
          <mxGeometry relative="1" as="geometry">
            <mxPoint x="468" y="1130" as="sourcePoint" />
            <mxPoint x="568" y="1130" as="targetPoint" />
            <Array as="points">
              <mxPoint x="885" y="805" />
            </Array>
          </mxGeometry>
        </mxCell>
        <mxCell id="626NCnL3sPuDbKjgWwMR-129" value="X" style="edgeLabel;resizable=0;html=1;align=center;verticalAlign=middle;fontColor=#FF0000;" parent="626NCnL3sPuDbKjgWwMR-128" connectable="0" vertex="1">
          <mxGeometry relative="1" as="geometry" />
        </mxCell>
        <mxCell id="626NCnL3sPuDbKjgWwMR-130" value="" style="endArrow=classic;html=1;fontColor=#FF0000;entryX=0;entryY=0.5;entryDx=0;entryDy=0;exitX=1;exitY=0.5;exitDx=0;exitDy=0;" parent="1" source="626NCnL3sPuDbKjgWwMR-116" target="626NCnL3sPuDbKjgWwMR-97" edge="1">
          <mxGeometry width="50" height="50" relative="1" as="geometry">
            <mxPoint x="180" y="1150" as="sourcePoint" />
            <mxPoint x="250" y="1150" as="targetPoint" />
          </mxGeometry>
        </mxCell>
        <mxCell id="626NCnL3sPuDbKjgWwMR-131" value="" style="endArrow=classic;html=1;fontColor=#FF0000;entryX=0;entryY=0.5;entryDx=0;entryDy=0;exitX=1;exitY=0.5;exitDx=0;exitDy=0;" parent="1" source="626NCnL3sPuDbKjgWwMR-117" target="626NCnL3sPuDbKjgWwMR-98" edge="1">
          <mxGeometry width="50" height="50" relative="1" as="geometry">
            <mxPoint x="190" y="1160" as="sourcePoint" />
            <mxPoint x="260" y="1160" as="targetPoint" />
          </mxGeometry>
        </mxCell>
        <mxCell id="626NCnL3sPuDbKjgWwMR-132" value="" style="shape=ext;rounded=1;html=1;whiteSpace=wrap;dashed=1;dashPattern=1 4;fontColor=#FF0000;" parent="1" vertex="1">
          <mxGeometry x="725" y="400" width="335" height="120" as="geometry" />
        </mxCell>
        <mxCell id="626NCnL3sPuDbKjgWwMR-134" value="&lt;font color=&quot;#000000&quot;&gt;sync binlog = 1&lt;br&gt;强制刷磁盘&lt;br&gt;&lt;/font&gt;" style="ellipse;whiteSpace=wrap;html=1;fontColor=#FF0000;" parent="1" vertex="1">
          <mxGeometry x="757.5" y="430" width="120" height="50" as="geometry" />
        </mxCell>
        <mxCell id="626NCnL3sPuDbKjgWwMR-135" value="&lt;font color=&quot;#000000&quot;&gt;sync binlog = 0&lt;br&gt;写入os cache&lt;br&gt;&lt;/font&gt;" style="ellipse;whiteSpace=wrap;html=1;fontColor=#FF0000;" parent="1" vertex="1">
          <mxGeometry x="910" y="430" width="120" height="50" as="geometry" />
        </mxCell>
        <mxCell id="626NCnL3sPuDbKjgWwMR-136" value="" style="endArrow=classic;html=1;fontColor=#FF0000;entryX=0.5;entryY=1;entryDx=0;entryDy=0;exitX=0.25;exitY=0;exitDx=0;exitDy=0;" parent="1" source="626NCnL3sPuDbKjgWwMR-84" target="626NCnL3sPuDbKjgWwMR-134" edge="1">
          <mxGeometry width="50" height="50" relative="1" as="geometry">
            <mxPoint x="-20" y="760" as="sourcePoint" />
            <mxPoint x="30" y="710" as="targetPoint" />
            <Array as="points">
              <mxPoint x="920" y="560" />
              <mxPoint x="818" y="560" />
            </Array>
          </mxGeometry>
        </mxCell>
        <mxCell id="626NCnL3sPuDbKjgWwMR-137" value="" style="endArrow=classic;html=1;fontColor=#FF0000;entryX=0.5;entryY=1;entryDx=0;entryDy=0;exitX=0.25;exitY=0;exitDx=0;exitDy=0;" parent="1" source="626NCnL3sPuDbKjgWwMR-84" target="626NCnL3sPuDbKjgWwMR-135" edge="1">
          <mxGeometry width="50" height="50" relative="1" as="geometry">
            <mxPoint x="-10" y="790" as="sourcePoint" />
            <mxPoint x="40" y="740" as="targetPoint" />
            <Array as="points">
              <mxPoint x="920" y="560" />
              <mxPoint x="970" y="560" />
            </Array>
          </mxGeometry>
        </mxCell>
        <mxCell id="626NCnL3sPuDbKjgWwMR-139" value="" style="endArrow=classic;html=1;fontColor=#FF0000;exitX=0.5;exitY=1;exitDx=0;exitDy=0;entryX=0.75;entryY=0;entryDx=0;entryDy=0;" parent="1" source="626NCnL3sPuDbKjgWwMR-23" target="626NCnL3sPuDbKjgWwMR-71" edge="1">
          <mxGeometry width="50" height="50" relative="1" as="geometry">
            <mxPoint x="1260" y="270" as="sourcePoint" />
            <mxPoint x="1310" y="220" as="targetPoint" />
            <Array as="points">
              <mxPoint x="1125" y="220" />
              <mxPoint x="923" y="220" />
            </Array>
          </mxGeometry>
        </mxCell>
      </root>
    </mxGraphModel>
  </diagram>
  <diagram id="JK01G9V9rGP1vlAC9HcG" name="第 2 页">
    <mxGraphModel dx="1422" dy="705" grid="1" gridSize="10" guides="1" tooltips="1" connect="1" arrows="1" fold="1" page="1" pageScale="1" pageWidth="827" pageHeight="1169" math="0" shadow="0">
      <root>
        <mxCell id="y_7YaFFlmKBI93DE90Ym-0" />
        <mxCell id="y_7YaFFlmKBI93DE90Ym-1" parent="y_7YaFFlmKBI93DE90Ym-0" />
      </root>
    </mxGraphModel>
  </diagram>
</mxfile>
